# xmcd
#
# Track frame offsets:
#	150
#	17556
#	35644
#	49326
#	66891
#	86581
#	101526
#	117856
#	137067
#	150742
#	168771
#	184317
#	200173
#	216634
#	231558
#
# Disc length: 3283 seconds
#
# Revision: 1
# Processed by: cddbd v1.5.2PL0 Copyright (c) Steve Scherf et al.
# Submitted via: audiograbber 1.83.01
#
DISCID=de0cd10f
DTITLE=Suzy Boggus - CB90038R
DYEAR=1900
DGENRE=Karaoke
TTITLE0=Cross My Broken Heart
TTITLE1=Someday Soon
TTITLE2=Outbound Plane
TTITLE3=Aces
TTITLE4=Letting Go
TTITLE5=Drive South
TTITLE6=Heartache
TTITLE7=Souvenirs
TTITLE8=Lovin' A Hurricane
TTITLE9=Keep Mom And Dad In Love
TTITLE10=Somewhere Between
TTITLE11=No Way Out
TTITLE12=Somebody To Love
TTITLE13=Nobody Love, Nobody Gets Hurt
TTITLE14=From Where I Stand
EXTD=
EXTT0=
EXTT1=
EXTT2=
EXTT3=
EXTT4=
EXTT5=
EXTT6=
EXTT7=
EXTT8=
EXTT9=
EXTT10=
EXTT11=
EXTT12=
EXTT13=
EXTT14=
PLAYORDER=
